<?xml version="1.0" encoding="UTF-8" standalone="no"?>
<!DOCTYPE svg PUBLIC "-//W3C//DTD SVG 1.1//EN"
 "http://www.w3.org/Graphics/SVG/1.1/DTD/svg11.dtd">
<!-- Generated by graphviz version 16.0.0 (20260814.1018)
 -->
<!-- Title: WorkItemGraph Pages: 1 -->
<svg width="973pt" height="250pt"
 viewBox="0.00 0.00 973.00 250.00" xmlns="http://www.w3.org/2000/svg" xmlns:xlink="http://www.w3.org/1999/xlink">
<g id="graph0" class="graph" transform="scale(1 1) rotate(0) translate(4 246)">
<title>WorkItemGraph</title>
<polygon fill="white" stroke="none" points="-4,4 -4,-246 968.62,-246 968.62,4 -4,4"/>
<text xml:space="preserve" text-anchor="middle" x="482.31" y="-222.8" font-family="Arial Bold" font-size="16.00">Work Item Relationships &#45; Query Results</text>
<g id="clust1" class="cluster">
<title>cluster_legend</title>
<polygon fill="lightgray" stroke="black" points="505.62,-128.5 505.62,-207.25 956.62,-207.25 956.62,-128.5 505.62,-128.5"/>
<text xml:space="preserve" text-anchor="middle" x="731.12" y="-188.05" font-family="Arial Bold" font-size="16.00">Legend</text>
</g>
<!-- wi__acme_flow_acmeflow_sdk_1 -->
<g id="node1" class="node">
<title>wi__acme_flow_acmeflow_sdk_1</title>
<polygon fill="lightblue" stroke="black" points="495.88,-190 295.38,-190 295.38,-119 495.88,-119 495.88,-190"/>
<text xml:space="preserve" text-anchor="middle" x="395.62" y="-172.7" font-family="Arial" font-size="14.00">#1</text>
<text xml:space="preserve" text-anchor="middle" x="395.62" y="-156.95" font-family="Arial" font-size="14.00">Epic</text>
<text xml:space="preserve" text-anchor="middle" x="395.62" y="-141.2" font-family="Arial" font-size="14.00">Official AcmeFlow SDKs &amp; CLI</text>
<text xml:space="preserve" text-anchor="middle" x="395.62" y="-125.45" font-family="Arial" font-size="14.00">acme&#45;flow/acmeflow&#45;sdk</text>
</g>
<!-- wi_acmeflow_AcmeFlow_3 -->
<g id="node2" class="node">
<title>wi_acmeflow_AcmeFlow_3</title>
<polygon fill="lightyellow" stroke="black" points="201.25,-71 0,-71 0,0 201.25,0 201.25,-71"/>
<text xml:space="preserve" text-anchor="middle" x="100.62" y="-53.7" font-family="Arial" font-size="14.00">#3</text>
<text xml:space="preserve" text-anchor="middle" x="100.62" y="-37.95" font-family="Arial" font-size="14.00">User Story</text>
<text xml:space="preserve" text-anchor="middle" x="100.62" y="-22.2" font-family="Arial" font-size="14.00">Favorite frequently used nodes</text>
<text xml:space="preserve" text-anchor="middle" x="100.62" y="-6.45" font-family="Arial" font-size="14.00">acmeflow/AcmeFlow</text>
</g>
<!-- wi__acme_flow_acmeflow_sdk_1&#45;&gt;wi_acmeflow_AcmeFlow_3 -->
<g id="edge1" class="edge">
<title>wi__acme_flow_acmeflow_sdk_1&#45;&gt;wi_acmeflow_AcmeFlow_3</title>
<path fill="none" stroke="red" stroke-dasharray="5,2" d="M295.07,-142.25C253.85,-134.67 206.78,-122.03 167.88,-101 157.31,-95.29 147.21,-87.46 138.2,-79.23"/>
<polygon fill="red" stroke="red" points="140.64,-76.72 131.01,-72.31 135.79,-81.77 140.64,-76.72"/>
<text xml:space="preserve" text-anchor="middle" x="184.75" y="-91.5" font-family="Arial" font-size="10.00">Related</text>
</g>
<!-- wi__acme_flow_acmeflow_sdk_1&#45;&gt;wi_acmeflow_AcmeFlow_3 -->
<g id="edge3" class="edge">
<title>wi__acme_flow_acmeflow_sdk_1&#45;&gt;wi_acmeflow_AcmeFlow_3</title>
<path fill="none" stroke="red" stroke-dasharray="5,2" d="M307.51,-118.55C273.36,-105.01 234.12,-89.44 199.05,-75.53"/>
<polygon fill="red" stroke="red" points="200.78,-72.46 190.2,-72.03 198.2,-78.97 200.78,-72.46"/>
<text xml:space="preserve" text-anchor="middle" x="273.85" y="-91.5" font-family="Arial" font-size="10.00">Related</text>
</g>
<!-- wi__acme_flow_acmeflow_sdk_2 -->
<g id="node3" class="node">
<title>wi__acme_flow_acmeflow_sdk_2</title>
<polygon fill="lightgreen" stroke="black" points="384.25,-71 219,-71 219,0 384.25,0 384.25,-71"/>
<text xml:space="preserve" text-anchor="middle" x="301.62" y="-53.7" font-family="Arial" font-size="14.00">#2</text>
<text xml:space="preserve" text-anchor="middle" x="301.62" y="-37.95" font-family="Arial" font-size="14.00">Feature</text>
<text xml:space="preserve" text-anchor="middle" x="301.62" y="-22.2" font-family="Arial" font-size="14.00">TypeScript SDK</text>
<text xml:space="preserve" text-anchor="middle" x="301.62" y="-6.45" font-family="Arial" font-size="14.00">acme&#45;flow/acmeflow&#45;sdk</text>
</g>
<!-- wi__acme_flow_acmeflow_sdk_1&#45;&gt;wi__acme_flow_acmeflow_sdk_2 -->
<g id="edge2" class="edge">
<title>wi__acme_flow_acmeflow_sdk_1&#45;&gt;wi__acme_flow_acmeflow_sdk_2</title>
<path fill="none" stroke="red" stroke-dasharray="5,2" d="M325.59,-118.74C319.56,-113.49 314.14,-107.59 309.88,-101 306.26,-95.41 303.87,-88.98 302.34,-82.39"/>
<polygon fill="red" stroke="red" points="305.83,-82.05 300.74,-72.75 298.92,-83.19 305.83,-82.05"/>
<text xml:space="preserve" text-anchor="middle" x="326.75" y="-91.5" font-family="Arial" font-size="10.00">Related</text>
</g>
<!-- wi__acme_flow_acmeflow_sdk_4 -->
<g id="node4" class="node">
<title>wi__acme_flow_acmeflow_sdk_4</title>
<polygon fill="lightgreen" stroke="black" points="567.25,-71 402,-71 402,0 567.25,0 567.25,-71"/>
<text xml:space="preserve" text-anchor="middle" x="484.62" y="-53.7" font-family="Arial" font-size="14.00">#4</text>
<text xml:space="preserve" text-anchor="middle" x="484.62" y="-37.95" font-family="Arial" font-size="14.00">Feature</text>
<text xml:space="preserve" text-anchor="middle" x="484.62" y="-22.2" font-family="Arial" font-size="14.00">AcmeFlow CLI</text>
<text xml:space="preserve" text-anchor="middle" x="484.62" y="-6.45" font-family="Arial" font-size="14.00">acme&#45;flow/acmeflow&#45;sdk</text>
</g>
<!-- wi__acme_flow_acmeflow_sdk_1&#45;&gt;wi__acme_flow_acmeflow_sdk_4 -->
<g id="edge4" class="edge">
<title>wi__acme_flow_acmeflow_sdk_1&#45;&gt;wi__acme_flow_acmeflow_sdk_4</title>
<path fill="none" stroke="red" stroke-dasharray="5,2" d="M410.19,-118.68C415.12,-108.66 421.11,-98.01 427.88,-89 430.32,-85.75 432.97,-82.53 435.76,-79.39"/>
<polygon fill="red" stroke="red" points="438.06,-82.05 442.35,-72.36 432.96,-77.26 438.06,-82.05"/>
<text xml:space="preserve" text-anchor="middle" x="444.75" y="-91.5" font-family="Arial" font-size="10.00">Related</text>
</g>
<!-- wi__acme_flow_acmeflow_sdk_5 -->
<g id="node5" class="node">
<title>wi__acme_flow_acmeflow_sdk_5</title>
<polygon fill="lightgreen" stroke="black" points="802.12,-71 585.12,-71 585.12,0 802.12,0 802.12,-71"/>
<text xml:space="preserve" text-anchor="middle" x="693.62" y="-53.7" font-family="Arial" font-size="14.00">#5</text>
<text xml:space="preserve" text-anchor="middle" x="693.62" y="-37.95" font-family="Arial" font-size="14.00">Feature</text>
<text xml:space="preserve" text-anchor="middle" x="693.62" y="-22.2" font-family="Arial" font-size="14.00">OpenAPI spec &amp; code generation</text>
<text xml:space="preserve" text-anchor="middle" x="693.62" y="-6.45" font-family="Arial" font-size="14.00">acme&#45;flow/acmeflow&#45;sdk</text>
</g>
<!-- wi__acme_flow_acmeflow_sdk_1&#45;&gt;wi__acme_flow_acmeflow_sdk_5 -->
<g id="edge5" class="edge">
<title>wi__acme_flow_acmeflow_sdk_1&#45;&gt;wi__acme_flow_acmeflow_sdk_5</title>
<path fill="none" stroke="red" stroke-dasharray="5,2" d="M484.63,-118.55C519.13,-105.01 558.78,-89.44 594.2,-75.53"/>
<polygon fill="red" stroke="red" points="595.12,-78.93 603.15,-72.02 592.57,-72.42 595.12,-78.93"/>
<text xml:space="preserve" text-anchor="middle" x="570.44" y="-91.5" font-family="Arial" font-size="10.00">Related</text>
</g>
<!-- wi__acme_flow_acmeflow_sdk_2&#45;&gt;wi__acme_flow_acmeflow_sdk_1 -->
<g id="edge6" class="edge">
<title>wi__acme_flow_acmeflow_sdk_2&#45;&gt;wi__acme_flow_acmeflow_sdk_1</title>
<path fill="none" stroke="red" stroke-dasharray="5,2" d="M329.63,-71.36C339.39,-83.51 350.48,-97.31 360.73,-110.07"/>
<polygon fill="red" stroke="red" points="357.74,-111.93 366.73,-117.53 363.19,-107.55 357.74,-111.93"/>
<text xml:space="preserve" text-anchor="middle" x="368.32" y="-91.5" font-family="Arial" font-size="10.00">Related</text>
</g>
<!-- wi__acme_flow_acmeflow_sdk_4&#45;&gt;wi__acme_flow_acmeflow_sdk_1 -->
<g id="edge7" class="edge">
<title>wi__acme_flow_acmeflow_sdk_4&#45;&gt;wi__acme_flow_acmeflow_sdk_1</title>
<path fill="none" stroke="red" stroke-dasharray="5,2" d="M476.12,-71.38C472.64,-81.51 467.92,-92.2 461.62,-101 459.23,-104.35 456.56,-107.6 453.71,-110.73"/>
<polygon fill="red" stroke="red" points="451.41,-108.08 446.86,-117.65 456.38,-113.01 451.41,-108.08"/>
<text xml:space="preserve" text-anchor="middle" x="485.22" y="-91.5" font-family="Arial" font-size="10.00">Related</text>
</g>
<!-- wi__acme_flow_acmeflow_sdk_5&#45;&gt;wi__acme_flow_acmeflow_sdk_1 -->
<g id="edge8" class="edge">
<title>wi__acme_flow_acmeflow_sdk_5&#45;&gt;wi__acme_flow_acmeflow_sdk_1</title>
<path fill="none" stroke="red" stroke-dasharray="5,2" d="M646.3,-71.5C629.71,-82.36 610.49,-93.45 591.62,-101 557.01,-114.85 543.45,-109.79 507.13,-117.8"/>
<polygon fill="red" stroke="red" points="506.62,-114.32 497.72,-120.08 508.26,-121.13 506.62,-114.32"/>
<text xml:space="preserve" text-anchor="middle" x="632.36" y="-91.5" font-family="Arial" font-size="10.00">Related</text>
</g>
<!-- legend_type_0 -->
<g id="node6" class="node">
<title>legend_type_0</title>
<polygon fill="lightblue" stroke="black" points="567.62,-172.5 513.62,-172.5 513.62,-136.5 567.62,-136.5 567.62,-172.5"/>
<text xml:space="preserve" text-anchor="middle" x="540.62" y="-149.07" font-family="Arial" font-size="14.00">Epic</text>
</g>
<!-- legend_type_1 -->
<g id="node7" class="node">
<title>legend_type_1</title>
<polygon fill="lightyellow" stroke="black" points="665.5,-172.5 585.75,-172.5 585.75,-136.5 665.5,-136.5 665.5,-172.5"/>
<text xml:space="preserve" text-anchor="middle" x="625.62" y="-149.07" font-family="Arial" font-size="14.00">User Story</text>
</g>
<!-- legend_type_2 -->
<g id="node8" class="node">
<title>legend_type_2</title>
<polygon fill="lightgreen" stroke="black" points="745.88,-172.5 683.38,-172.5 683.38,-136.5 745.88,-136.5 745.88,-172.5"/>
<text xml:space="preserve" text-anchor="middle" x="714.62" y="-149.07" font-family="Arial" font-size="14.00">Feature</text>
</g>
<!-- legend_rel_0 -->
<g id="node9" class="node">
<title>legend_rel_0</title>
<ellipse fill="red" stroke="black" cx="805.62" cy="-154.5" rx="41.58" ry="18"/>
<text xml:space="preserve" text-anchor="middle" x="805.62" y="-149.07" font-family="Arial" font-size="14.00">Related</text>
</g>
<!-- legend_rel_1 -->
<g id="node10" class="node">
<title>legend_rel_1</title>
<ellipse fill="red" stroke="black" cx="906.62" cy="-154.5" rx="41.58" ry="18"/>
<text xml:space="preserve" text-anchor="middle" x="906.62" y="-149.07" font-family="Arial" font-size="14.00">Related</text>
</g>
</g>
</svg>
