<?xml version="1.0" encoding="UTF-8" standalone="no"?>
<!DOCTYPE svg PUBLIC "-//W3C//DTD SVG 1.1//EN"
 "http://www.w3.org/Graphics/SVG/1.1/DTD/svg11.dtd">
<!-- Generated by graphviz version 16.0.0 (20260814.1018)
 -->
<!-- Title: WorkItemGraph Pages: 1 -->
<svg width="495pt" height="373pt"
 viewBox="0.00 0.00 495.00 373.00" xmlns="http://www.w3.org/2000/svg" xmlns:xlink="http://www.w3.org/1999/xlink">
<g id="graph0" class="graph" transform="scale(1 1) rotate(0) translate(4 368.75)">
<title>WorkItemGraph</title>
<polygon fill="white" stroke="none" points="-4,4 -4,-368.75 491.25,-368.75 491.25,4 -4,4"/>
<text xml:space="preserve" text-anchor="middle" x="243.62" y="-345.55" font-family="Arial Bold" font-size="16.00">Work Item Relationships &#45; Query Results</text>
<!-- wi__acme_flow_acmeflow_sdk_1 -->
<g id="node1" class="node">
<title>wi__acme_flow_acmeflow_sdk_1</title>
<polygon fill="lightblue" stroke="black" points="200.5,-204 0,-204 0,-133 200.5,-133 200.5,-204"/>
<text xml:space="preserve" text-anchor="middle" x="100.25" y="-186.7" font-family="Arial" font-size="14.00">#1</text>
<text xml:space="preserve" text-anchor="middle" x="100.25" y="-170.95" font-family="Arial" font-size="14.00">Epic</text>
<text xml:space="preserve" text-anchor="middle" x="100.25" y="-155.2" font-family="Arial" font-size="14.00">Official AcmeFlow SDKs &amp; CLI</text>
<text xml:space="preserve" text-anchor="middle" x="100.25" y="-139.45" font-family="Arial" font-size="14.00">acme&#45;flow/acmeflow&#45;sdk</text>
</g>
<!-- wi_acmeflow_AcmeFlow_3 -->
<g id="node2" class="node">
<title>wi_acmeflow_AcmeFlow_3</title>
<polygon fill="lightyellow" stroke="black" points="479.38,-338 278.12,-338 278.12,-267 479.38,-267 479.38,-338"/>
<text xml:space="preserve" text-anchor="middle" x="378.75" y="-320.7" font-family="Arial" font-size="14.00">#3</text>
<text xml:space="preserve" text-anchor="middle" x="378.75" y="-304.95" font-family="Arial" font-size="14.00">User Story</text>
<text xml:space="preserve" text-anchor="middle" x="378.75" y="-289.2" font-family="Arial" font-size="14.00">Favorite frequently used nodes</text>
<text xml:space="preserve" text-anchor="middle" x="378.75" y="-273.45" font-family="Arial" font-size="14.00">acmeflow/AcmeFlow</text>
</g>
<!-- wi__acme_flow_acmeflow_sdk_1&#45;&gt;wi_acmeflow_AcmeFlow_3 -->
<g id="edge1" class="edge">
<title>wi__acme_flow_acmeflow_sdk_1&#45;&gt;wi_acmeflow_AcmeFlow_3</title>
<path fill="none" stroke="red" stroke-dasharray="5,2" d="M129.64,-204.36C151.26,-229.05 183.25,-260.37 218.5,-277.5 233.47,-284.77 250.08,-290.02 266.76,-293.78"/>
<polygon fill="red" stroke="red" points="265.73,-297.14 276.23,-295.74 267.15,-290.29 265.73,-297.14"/>
<text xml:space="preserve" text-anchor="middle" x="235.38" y="-292.32" font-family="Arial" font-size="10.00">Related</text>
</g>
<!-- wi__acme_flow_acmeflow_sdk_1&#45;&gt;wi_acmeflow_AcmeFlow_3 -->
<g id="edge3" class="edge">
<title>wi__acme_flow_acmeflow_sdk_1&#45;&gt;wi_acmeflow_AcmeFlow_3</title>
<path fill="none" stroke="red" stroke-dasharray="5,2" d="M165.08,-204.45C196.39,-221.58 234.89,-241.9 270.25,-258.5 272.68,-259.64 275.14,-260.78 277.63,-261.91"/>
<polygon fill="red" stroke="red" points="276.06,-265.05 286.62,-265.94 278.92,-258.66 276.06,-265.05"/>
<text xml:space="preserve" text-anchor="middle" x="235.38" y="-252.02" font-family="Arial" font-size="10.00">Related</text>
</g>
<!-- wi__acme_flow_acmeflow_sdk_2 -->
<g id="node3" class="node">
<title>wi__acme_flow_acmeflow_sdk_2</title>
<polygon fill="lightgreen" stroke="black" points="461.38,-249 296.12,-249 296.12,-178 461.38,-178 461.38,-249"/>
<text xml:space="preserve" text-anchor="middle" x="378.75" y="-231.7" font-family="Arial" font-size="14.00">#2</text>
<text xml:space="preserve" text-anchor="middle" x="378.75" y="-215.95" font-family="Arial" font-size="14.00">Feature</text>
<text xml:space="preserve" text-anchor="middle" x="378.75" y="-200.2" font-family="Arial" font-size="14.00">TypeScript SDK</text>
<text xml:space="preserve" text-anchor="middle" x="378.75" y="-184.45" font-family="Arial" font-size="14.00">acme&#45;flow/acmeflow&#45;sdk</text>
</g>
<!-- wi__acme_flow_acmeflow_sdk_1&#45;&gt;wi__acme_flow_acmeflow_sdk_2 -->
<g id="edge2" class="edge">
<title>wi__acme_flow_acmeflow_sdk_1&#45;&gt;wi__acme_flow_acmeflow_sdk_2</title>
<path fill="none" stroke="red" stroke-dasharray="5,2" d="M200.78,-196.05C206.75,-197.32 212.69,-198.48 218.5,-199.5 239.8,-203.22 262.89,-205.98 284.7,-208.01"/>
<polygon fill="red" stroke="red" points="284.2,-211.48 294.47,-208.87 284.82,-204.5 284.2,-211.48"/>
<text xml:space="preserve" text-anchor="middle" x="235.38" y="-206.55" font-family="Arial" font-size="10.00">Related</text>
</g>
<!-- wi__acme_flow_acmeflow_sdk_4 -->
<g id="node4" class="node">
<title>wi__acme_flow_acmeflow_sdk_4</title>
<polygon fill="lightgreen" stroke="black" points="461.38,-160 296.12,-160 296.12,-89 461.38,-89 461.38,-160"/>
<text xml:space="preserve" text-anchor="middle" x="378.75" y="-142.7" font-family="Arial" font-size="14.00">#4</text>
<text xml:space="preserve" text-anchor="middle" x="378.75" y="-126.95" font-family="Arial" font-size="14.00">Feature</text>
<text xml:space="preserve" text-anchor="middle" x="378.75" y="-111.2" font-family="Arial" font-size="14.00">AcmeFlow CLI</text>
<text xml:space="preserve" text-anchor="middle" x="378.75" y="-95.45" font-family="Arial" font-size="14.00">acme&#45;flow/acmeflow&#45;sdk</text>
</g>
<!-- wi__acme_flow_acmeflow_sdk_1&#45;&gt;wi__acme_flow_acmeflow_sdk_4 -->
<g id="edge4" class="edge">
<title>wi__acme_flow_acmeflow_sdk_1&#45;&gt;wi__acme_flow_acmeflow_sdk_4</title>
<path fill="none" stroke="red" stroke-dasharray="5,2" d="M200.68,-152.68C228.17,-148.3 257.88,-143.57 284.98,-139.26"/>
<polygon fill="red" stroke="red" points="285.19,-142.77 294.52,-137.74 284.09,-135.86 285.19,-142.77"/>
<text xml:space="preserve" text-anchor="middle" x="235.38" y="-151.63" font-family="Arial" font-size="10.00">Related</text>
</g>
<!-- wi__acme_flow_acmeflow_sdk_5 -->
<g id="node5" class="node">
<title>wi__acme_flow_acmeflow_sdk_5</title>
<polygon fill="lightgreen" stroke="black" points="487.25,-71 270.25,-71 270.25,0 487.25,0 487.25,-71"/>
<text xml:space="preserve" text-anchor="middle" x="378.75" y="-53.7" font-family="Arial" font-size="14.00">#5</text>
<text xml:space="preserve" text-anchor="middle" x="378.75" y="-37.95" font-family="Arial" font-size="14.00">Feature</text>
<text xml:space="preserve" text-anchor="middle" x="378.75" y="-22.2" font-family="Arial" font-size="14.00">OpenAPI spec &amp; code generation</text>
<text xml:space="preserve" text-anchor="middle" x="378.75" y="-6.45" font-family="Arial" font-size="14.00">acme&#45;flow/acmeflow&#45;sdk</text>
</g>
<!-- wi__acme_flow_acmeflow_sdk_1&#45;&gt;wi__acme_flow_acmeflow_sdk_5 -->
<g id="edge5" class="edge">
<title>wi__acme_flow_acmeflow_sdk_1&#45;&gt;wi__acme_flow_acmeflow_sdk_5</title>
<path fill="none" stroke="red" stroke-dasharray="5,2" d="M167.23,-132.51C198.2,-116.04 235.8,-96.64 270.25,-80.5 273.36,-79.04 276.52,-77.58 279.73,-76.13"/>
<polygon fill="red" stroke="red" points="280.99,-79.39 288.68,-72.11 278.13,-73.01 280.99,-79.39"/>
<text xml:space="preserve" text-anchor="middle" x="235.38" y="-108.33" font-family="Arial" font-size="10.00">Related</text>
</g>
<!-- wi__acme_flow_acmeflow_sdk_2&#45;&gt;wi__acme_flow_acmeflow_sdk_1 -->
<g id="edge6" class="edge">
<title>wi__acme_flow_acmeflow_sdk_2&#45;&gt;wi__acme_flow_acmeflow_sdk_1</title>
<path fill="none" stroke="red" stroke-dasharray="5,2" d="M295.68,-193.03C281.27,-189.87 266.36,-186.87 252.25,-184.5 239.35,-182.33 225.78,-180.41 212.29,-178.71"/>
<polygon fill="red" stroke="red" points="212.84,-175.25 202.49,-177.52 211.99,-182.2 212.84,-175.25"/>
<text xml:space="preserve" text-anchor="middle" x="235.38" y="-187" font-family="Arial" font-size="10.00">Related</text>
</g>
<!-- wi__acme_flow_acmeflow_sdk_4&#45;&gt;wi__acme_flow_acmeflow_sdk_1 -->
<g id="edge7" class="edge">
<title>wi__acme_flow_acmeflow_sdk_4&#45;&gt;wi__acme_flow_acmeflow_sdk_1</title>
<path fill="none" stroke="red" stroke-dasharray="5,2" d="M295.86,-122.54C270.87,-123.16 243.42,-125.06 218.5,-129.5 216.32,-129.89 214.13,-130.31 211.93,-130.76"/>
<polygon fill="red" stroke="red" points="211.33,-127.3 202.33,-132.9 212.85,-134.14 211.33,-127.3"/>
<text xml:space="preserve" text-anchor="middle" x="235.38" y="-132" font-family="Arial" font-size="10.00">Related</text>
</g>
<!-- wi__acme_flow_acmeflow_sdk_5&#45;&gt;wi__acme_flow_acmeflow_sdk_1 -->
<g id="edge8" class="edge">
<title>wi__acme_flow_acmeflow_sdk_5&#45;&gt;wi__acme_flow_acmeflow_sdk_1</title>
<path fill="none" stroke="red" stroke-dasharray="5,2" d="M270.08,-54.24C252.37,-59.27 234.56,-65.59 218.5,-73.5 191.97,-86.56 166.04,-106.58 145.34,-124.87"/>
<polygon fill="red" stroke="red" points="143,-122.27 137.93,-131.57 147.69,-127.46 143,-122.27"/>
<text xml:space="preserve" text-anchor="middle" x="235.38" y="-76" font-family="Arial" font-size="10.00">Related</text>
</g>
</g>
</svg>
