<?xml version="1.0" encoding="UTF-8" standalone="no"?>
<!DOCTYPE svg PUBLIC "-//W3C//DTD SVG 1.1//EN"
 "http://www.w3.org/Graphics/SVG/1.1/DTD/svg11.dtd">
<!-- Generated by graphviz version 16.0.0 (20260814.1018)
 -->
<!-- Title: WorkItemGraph Pages: 1 -->
<svg width="810pt" height="241pt"
 viewBox="0.00 0.00 810.00 241.00" xmlns="http://www.w3.org/2000/svg" xmlns:xlink="http://www.w3.org/1999/xlink">
<g id="graph0" class="graph" transform="scale(1 1) rotate(0) translate(4 236.5)">
<title>WorkItemGraph</title>
<polygon fill="white" stroke="none" points="-4,4 -4,-236.5 806.12,-236.5 806.12,4 -4,4"/>
<text xml:space="preserve" text-anchor="middle" x="401.06" y="-213.3" font-family="Arial Bold" font-size="16.00">Work Item Relationships &#45; Query Results</text>
<!-- wi__acme_flow_acmeflow_sdk_1 -->
<g id="node1" class="node">
<title>wi__acme_flow_acmeflow_sdk_1</title>
<polygon fill="lightblue" stroke="black" points="493.88,-205.75 293.38,-205.75 293.38,-134.75 493.88,-134.75 493.88,-205.75"/>
<text xml:space="preserve" text-anchor="middle" x="393.62" y="-188.45" font-family="Arial" font-size="14.00">#1</text>
<text xml:space="preserve" text-anchor="middle" x="393.62" y="-172.7" font-family="Arial" font-size="14.00">Epic</text>
<text xml:space="preserve" text-anchor="middle" x="393.62" y="-156.95" font-family="Arial" font-size="14.00">Official AcmeFlow SDKs &amp; CLI</text>
<text xml:space="preserve" text-anchor="middle" x="393.62" y="-141.2" font-family="Arial" font-size="14.00">acme&#45;flow/acmeflow&#45;sdk</text>
</g>
<!-- wi_acmeflow_AcmeFlow_3 -->
<g id="node2" class="node">
<title>wi_acmeflow_AcmeFlow_3</title>
<polygon fill="lightyellow" stroke="black" points="201.25,-86.75 0,-86.75 0,0 201.25,0 201.25,-86.75"/>
<text xml:space="preserve" text-anchor="middle" x="100.62" y="-69.45" font-family="Arial" font-size="14.00">#3</text>
<text xml:space="preserve" text-anchor="middle" x="100.62" y="-53.7" font-family="Arial" font-size="14.00">User Story</text>
<text xml:space="preserve" text-anchor="middle" x="100.62" y="-37.95" font-family="Arial" font-size="14.00">Favorite frequently used nodes</text>
<text xml:space="preserve" text-anchor="middle" x="100.62" y="-22.2" font-family="Arial" font-size="14.00">acmeflow/AcmeFlow</text>
<text xml:space="preserve" text-anchor="middle" x="100.62" y="-6.45" font-family="Arial" font-size="14.00">State: New</text>
</g>
<!-- wi__acme_flow_acmeflow_sdk_1&#45;&gt;wi_acmeflow_AcmeFlow_3 -->
<g id="edge1" class="edge">
<title>wi__acme_flow_acmeflow_sdk_1&#45;&gt;wi_acmeflow_AcmeFlow_3</title>
<path fill="none" stroke="red" stroke-dasharray="5,2" d="M293.06,-158.9C252.17,-151.47 205.73,-138.69 167.88,-116.75 158.08,-111.07 148.87,-103.51 140.58,-95.42"/>
<polygon fill="red" stroke="red" points="143.15,-93.03 133.68,-88.28 138.12,-97.9 143.15,-93.03"/>
<text xml:space="preserve" text-anchor="middle" x="184.75" y="-107.25" font-family="Arial" font-size="10.00">Related</text>
</g>
<!-- wi__acme_flow_acmeflow_sdk_1&#45;&gt;wi_acmeflow_AcmeFlow_3 -->
<g id="edge3" class="edge">
<title>wi__acme_flow_acmeflow_sdk_1&#45;&gt;wi_acmeflow_AcmeFlow_3</title>
<path fill="none" stroke="red" stroke-dasharray="5,2" d="M308.65,-134.3C294.68,-128.48 280.36,-122.48 266.88,-116.75 247.96,-108.72 227.89,-100.08 208.47,-91.66"/>
<polygon fill="red" stroke="red" points="210.03,-88.52 199.47,-87.75 207.25,-94.94 210.03,-88.52"/>
<text xml:space="preserve" text-anchor="middle" x="283.75" y="-107.25" font-family="Arial" font-size="10.00">Related</text>
</g>
<!-- wi__acme_flow_acmeflow_sdk_2 -->
<g id="node3" class="node">
<title>wi__acme_flow_acmeflow_sdk_2</title>
<polygon fill="lightgreen" stroke="black" points="384.25,-78.88 219,-78.88 219,-7.88 384.25,-7.88 384.25,-78.88"/>
<text xml:space="preserve" text-anchor="middle" x="301.62" y="-61.58" font-family="Arial" font-size="14.00">#2</text>
<text xml:space="preserve" text-anchor="middle" x="301.62" y="-45.83" font-family="Arial" font-size="14.00">Feature</text>
<text xml:space="preserve" text-anchor="middle" x="301.62" y="-30.07" font-family="Arial" font-size="14.00">TypeScript SDK</text>
<text xml:space="preserve" text-anchor="middle" x="301.62" y="-14.32" font-family="Arial" font-size="14.00">acme&#45;flow/acmeflow&#45;sdk</text>
</g>
<!-- wi__acme_flow_acmeflow_sdk_1&#45;&gt;wi__acme_flow_acmeflow_sdk_2 -->
<g id="edge2" class="edge">
<title>wi__acme_flow_acmeflow_sdk_1&#45;&gt;wi__acme_flow_acmeflow_sdk_2</title>
<path fill="none" stroke="red" stroke-dasharray="5,2" d="M325.12,-134.36C319.25,-129.14 313.99,-123.28 309.88,-116.75 304.94,-108.91 302.15,-99.64 300.69,-90.39"/>
<polygon fill="red" stroke="red" points="304.2,-90.3 299.66,-80.72 297.24,-91.04 304.2,-90.3"/>
<text xml:space="preserve" text-anchor="middle" x="326.75" y="-107.25" font-family="Arial" font-size="10.00">Related</text>
</g>
<!-- wi__acme_flow_acmeflow_sdk_4 -->
<g id="node4" class="node">
<title>wi__acme_flow_acmeflow_sdk_4</title>
<polygon fill="lightgreen" stroke="black" points="567.25,-78.88 402,-78.88 402,-7.88 567.25,-7.88 567.25,-78.88"/>
<text xml:space="preserve" text-anchor="middle" x="484.62" y="-61.58" font-family="Arial" font-size="14.00">#4</text>
<text xml:space="preserve" text-anchor="middle" x="484.62" y="-45.83" font-family="Arial" font-size="14.00">Feature</text>
<text xml:space="preserve" text-anchor="middle" x="484.62" y="-30.07" font-family="Arial" font-size="14.00">AcmeFlow CLI</text>
<text xml:space="preserve" text-anchor="middle" x="484.62" y="-14.32" font-family="Arial" font-size="14.00">acme&#45;flow/acmeflow&#45;sdk</text>
</g>
<!-- wi__acme_flow_acmeflow_sdk_1&#45;&gt;wi__acme_flow_acmeflow_sdk_4 -->
<g id="edge4" class="edge">
<title>wi__acme_flow_acmeflow_sdk_1&#45;&gt;wi__acme_flow_acmeflow_sdk_4</title>
<path fill="none" stroke="red" stroke-dasharray="5,2" d="M409.95,-134.43C415.17,-124.52 421.31,-113.93 427.88,-104.75 432,-98.99 436.63,-93.22 441.43,-87.64"/>
<polygon fill="red" stroke="red" points="444.01,-90.01 448.05,-80.21 438.78,-85.35 444.01,-90.01"/>
<text xml:space="preserve" text-anchor="middle" x="444.75" y="-107.25" font-family="Arial" font-size="10.00">Related</text>
</g>
<!-- wi__acme_flow_acmeflow_sdk_5 -->
<g id="node5" class="node">
<title>wi__acme_flow_acmeflow_sdk_5</title>
<polygon fill="lightgreen" stroke="black" points="802.12,-78.88 585.12,-78.88 585.12,-7.88 802.12,-7.88 802.12,-78.88"/>
<text xml:space="preserve" text-anchor="middle" x="693.62" y="-61.58" font-family="Arial" font-size="14.00">#5</text>
<text xml:space="preserve" text-anchor="middle" x="693.62" y="-45.83" font-family="Arial" font-size="14.00">Feature</text>
<text xml:space="preserve" text-anchor="middle" x="693.62" y="-30.07" font-family="Arial" font-size="14.00">OpenAPI spec &amp; code generation</text>
<text xml:space="preserve" text-anchor="middle" x="693.62" y="-14.32" font-family="Arial" font-size="14.00">acme&#45;flow/acmeflow&#45;sdk</text>
</g>
<!-- wi__acme_flow_acmeflow_sdk_1&#45;&gt;wi__acme_flow_acmeflow_sdk_5 -->
<g id="edge5" class="edge">
<title>wi__acme_flow_acmeflow_sdk_1&#45;&gt;wi__acme_flow_acmeflow_sdk_5</title>
<path fill="none" stroke="red" stroke-dasharray="5,2" d="M477.59,-134.3C515.46,-118.54 560.35,-99.85 599.37,-83.61"/>
<polygon fill="red" stroke="red" points="600.4,-86.97 608.28,-79.9 597.71,-80.51 600.4,-86.97"/>
<text xml:space="preserve" text-anchor="middle" x="560.5" y="-107.25" font-family="Arial" font-size="10.00">Related</text>
</g>
<!-- wi__acme_flow_acmeflow_sdk_2&#45;&gt;wi__acme_flow_acmeflow_sdk_1 -->
<g id="edge6" class="edge">
<title>wi__acme_flow_acmeflow_sdk_2&#45;&gt;wi__acme_flow_acmeflow_sdk_1</title>
<path fill="none" stroke="red" stroke-dasharray="5,2" d="M327.11,-78.97C337.67,-93.3 350.03,-110.07 361.21,-125.26"/>
<polygon fill="red" stroke="red" points="358.35,-127.27 367.1,-133.25 363.99,-123.12 358.35,-127.27"/>
<text xml:space="preserve" text-anchor="middle" x="370.01" y="-107.25" font-family="Arial" font-size="10.00">Related</text>
</g>
<!-- wi__acme_flow_acmeflow_sdk_4&#45;&gt;wi__acme_flow_acmeflow_sdk_1 -->
<g id="edge7" class="edge">
<title>wi__acme_flow_acmeflow_sdk_4&#45;&gt;wi__acme_flow_acmeflow_sdk_1</title>
<path fill="none" stroke="red" stroke-dasharray="5,2" d="M478.14,-79.11C474.65,-91.73 469.41,-105.62 461.62,-116.75 459.26,-120.13 456.62,-123.38 453.78,-126.51"/>
<polygon fill="red" stroke="red" points="451.5,-123.84 446.94,-133.4 456.47,-128.77 451.5,-123.84"/>
<text xml:space="preserve" text-anchor="middle" x="484.81" y="-107.25" font-family="Arial" font-size="10.00">Related</text>
</g>
<!-- wi__acme_flow_acmeflow_sdk_5&#45;&gt;wi__acme_flow_acmeflow_sdk_1 -->
<g id="edge8" class="edge">
<title>wi__acme_flow_acmeflow_sdk_5&#45;&gt;wi__acme_flow_acmeflow_sdk_1</title>
<path fill="none" stroke="red" stroke-dasharray="5,2" d="M646.65,-79.24C627.27,-92.4 604.11,-106.63 581.62,-116.75 557.56,-127.58 530.74,-136.68 505.07,-144.1"/>
<polygon fill="red" stroke="red" points="504.28,-140.69 495.6,-146.77 506.18,-147.43 504.28,-140.69"/>
<text xml:space="preserve" text-anchor="middle" x="621.26" y="-107.25" font-family="Arial" font-size="10.00">Related</text>
</g>
</g>
</svg>
