<?xml version="1.0" encoding="UTF-8" standalone="no"?>
<!DOCTYPE svg PUBLIC "-//W3C//DTD SVG 1.1//EN"
 "http://www.w3.org/Graphics/SVG/1.1/DTD/svg11.dtd">
<!-- Generated by graphviz version 16.0.0 (20260814.1018)
 -->
<!-- Title: WorkItemGraph Pages: 1 -->
<svg width="820pt" height="256pt"
 viewBox="0.00 0.00 820.00 256.00" xmlns="http://www.w3.org/2000/svg" xmlns:xlink="http://www.w3.org/1999/xlink">
<g id="graph0" class="graph" transform="scale(1 1) rotate(0) translate(4 252.25)">
<title>WorkItemGraph</title>
<polygon fill="white" stroke="none" points="-4,4 -4,-252.25 816.12,-252.25 816.12,4 -4,4"/>
<text xml:space="preserve" text-anchor="middle" x="406.06" y="-229.05" font-family="Arial Bold" font-size="16.00">Work Item Relationships &#45; Query Results</text>
<!-- wi__acme_flow_acmeflow_sdk_1 -->
<g id="node1" class="node">
<title>wi__acme_flow_acmeflow_sdk_1</title>
<polygon fill="lightblue" stroke="black" points="498.88,-221.5 298.38,-221.5 298.38,-134.75 498.88,-134.75 498.88,-221.5"/>
<text xml:space="preserve" text-anchor="middle" x="398.62" y="-204.2" font-family="Arial" font-size="14.00">#1</text>
<text xml:space="preserve" text-anchor="middle" x="398.62" y="-188.45" font-family="Arial" font-size="14.00">Epic</text>
<text xml:space="preserve" text-anchor="middle" x="398.62" y="-172.7" font-family="Arial" font-size="14.00">Official AcmeFlow SDKs &amp; CLI</text>
<text xml:space="preserve" text-anchor="middle" x="398.62" y="-156.95" font-family="Arial" font-size="14.00">acme&#45;flow/acmeflow&#45;sdk</text>
<text xml:space="preserve" text-anchor="middle" x="398.62" y="-141.2" font-family="Arial" font-size="14.00">AssignedTo: not assigned</text>
</g>
<!-- wi_acmeflow_AcmeFlow_3 -->
<g id="node2" class="node">
<title>wi_acmeflow_AcmeFlow_3</title>
<polygon fill="lightyellow" stroke="black" points="201.25,-86.75 0,-86.75 0,0 201.25,0 201.25,-86.75"/>
<text xml:space="preserve" text-anchor="middle" x="100.62" y="-69.45" font-family="Arial" font-size="14.00">#3</text>
<text xml:space="preserve" text-anchor="middle" x="100.62" y="-53.7" font-family="Arial" font-size="14.00">User Story</text>
<text xml:space="preserve" text-anchor="middle" x="100.62" y="-37.95" font-family="Arial" font-size="14.00">Favorite frequently used nodes</text>
<text xml:space="preserve" text-anchor="middle" x="100.62" y="-22.2" font-family="Arial" font-size="14.00">acmeflow/AcmeFlow</text>
<text xml:space="preserve" text-anchor="middle" x="100.62" y="-6.45" font-family="Arial" font-size="14.00">AssignedTo: not assigned</text>
</g>
<!-- wi__acme_flow_acmeflow_sdk_1&#45;&gt;wi_acmeflow_AcmeFlow_3 -->
<g id="edge1" class="edge">
<title>wi__acme_flow_acmeflow_sdk_1&#45;&gt;wi_acmeflow_AcmeFlow_3</title>
<path fill="none" stroke="red" stroke-dasharray="5,2" d="M297.93,-162.61C256.57,-153.63 209.44,-139.33 170.88,-116.75 160.8,-110.85 151.2,-103.11 142.52,-94.89"/>
<polygon fill="red" stroke="red" points="145.13,-92.55 135.57,-87.98 140.19,-97.51 145.13,-92.55"/>
<text xml:space="preserve" text-anchor="middle" x="187.75" y="-107.25" font-family="Arial" font-size="10.00">Related</text>
</g>
<!-- wi__acme_flow_acmeflow_sdk_1&#45;&gt;wi_acmeflow_AcmeFlow_3 -->
<g id="edge3" class="edge">
<title>wi__acme_flow_acmeflow_sdk_1&#45;&gt;wi_acmeflow_AcmeFlow_3</title>
<path fill="none" stroke="red" stroke-dasharray="5,2" d="M302.7,-134.39C272.2,-120.81 238.29,-105.7 207.1,-91.8"/>
<polygon fill="red" stroke="red" points="208.57,-88.63 198.01,-87.76 205.72,-95.02 208.57,-88.63"/>
<text xml:space="preserve" text-anchor="middle" x="275.44" y="-107.25" font-family="Arial" font-size="10.00">Related</text>
</g>
<!-- wi__acme_flow_acmeflow_sdk_2 -->
<g id="node3" class="node">
<title>wi__acme_flow_acmeflow_sdk_2</title>
<polygon fill="lightgreen" stroke="black" points="389.5,-86.75 219.75,-86.75 219.75,0 389.5,0 389.5,-86.75"/>
<text xml:space="preserve" text-anchor="middle" x="304.62" y="-69.45" font-family="Arial" font-size="14.00">#2</text>
<text xml:space="preserve" text-anchor="middle" x="304.62" y="-53.7" font-family="Arial" font-size="14.00">Feature</text>
<text xml:space="preserve" text-anchor="middle" x="304.62" y="-37.95" font-family="Arial" font-size="14.00">TypeScript SDK</text>
<text xml:space="preserve" text-anchor="middle" x="304.62" y="-22.2" font-family="Arial" font-size="14.00">acme&#45;flow/acmeflow&#45;sdk</text>
<text xml:space="preserve" text-anchor="middle" x="304.62" y="-6.45" font-family="Arial" font-size="14.00">AssignedTo: not assigned</text>
</g>
<!-- wi__acme_flow_acmeflow_sdk_1&#45;&gt;wi__acme_flow_acmeflow_sdk_2 -->
<g id="edge2" class="edge">
<title>wi__acme_flow_acmeflow_sdk_1&#45;&gt;wi__acme_flow_acmeflow_sdk_2</title>
<path fill="none" stroke="red" stroke-dasharray="5,2" d="M329.06,-134.6C323.64,-129.15 318.77,-123.19 314.88,-116.75 311.43,-111.04 308.96,-104.63 307.22,-98.04"/>
<polygon fill="red" stroke="red" points="310.68,-97.46 305.24,-88.37 303.82,-98.87 310.68,-97.46"/>
<text xml:space="preserve" text-anchor="middle" x="331.75" y="-107.25" font-family="Arial" font-size="10.00">Related</text>
</g>
<!-- wi__acme_flow_acmeflow_sdk_4 -->
<g id="node4" class="node">
<title>wi__acme_flow_acmeflow_sdk_4</title>
<polygon fill="lightgreen" stroke="black" points="577.5,-86.75 407.75,-86.75 407.75,0 577.5,0 577.5,-86.75"/>
<text xml:space="preserve" text-anchor="middle" x="492.62" y="-69.45" font-family="Arial" font-size="14.00">#4</text>
<text xml:space="preserve" text-anchor="middle" x="492.62" y="-53.7" font-family="Arial" font-size="14.00">Feature</text>
<text xml:space="preserve" text-anchor="middle" x="492.62" y="-37.95" font-family="Arial" font-size="14.00">AcmeFlow CLI</text>
<text xml:space="preserve" text-anchor="middle" x="492.62" y="-22.2" font-family="Arial" font-size="14.00">acme&#45;flow/acmeflow&#45;sdk</text>
<text xml:space="preserve" text-anchor="middle" x="492.62" y="-6.45" font-family="Arial" font-size="14.00">AssignedTo: not assigned</text>
</g>
<!-- wi__acme_flow_acmeflow_sdk_1&#45;&gt;wi__acme_flow_acmeflow_sdk_4 -->
<g id="edge4" class="edge">
<title>wi__acme_flow_acmeflow_sdk_1&#45;&gt;wi__acme_flow_acmeflow_sdk_4</title>
<path fill="none" stroke="red" stroke-dasharray="5,2" d="M417.29,-134.57C422.43,-124.45 428.4,-113.94 434.88,-104.75 436.96,-101.79 439.19,-98.82 441.52,-95.89"/>
<polygon fill="red" stroke="red" points="444.06,-98.31 447.77,-88.39 438.68,-93.83 444.06,-98.31"/>
<text xml:space="preserve" text-anchor="middle" x="451.75" y="-107.25" font-family="Arial" font-size="10.00">Related</text>
</g>
<!-- wi__acme_flow_acmeflow_sdk_5 -->
<g id="node5" class="node">
<title>wi__acme_flow_acmeflow_sdk_5</title>
<polygon fill="lightgreen" stroke="black" points="812.12,-86.75 595.12,-86.75 595.12,0 812.12,0 812.12,-86.75"/>
<text xml:space="preserve" text-anchor="middle" x="703.62" y="-69.45" font-family="Arial" font-size="14.00">#5</text>
<text xml:space="preserve" text-anchor="middle" x="703.62" y="-53.7" font-family="Arial" font-size="14.00">Feature</text>
<text xml:space="preserve" text-anchor="middle" x="703.62" y="-37.95" font-family="Arial" font-size="14.00">OpenAPI spec &amp; code generation</text>
<text xml:space="preserve" text-anchor="middle" x="703.62" y="-22.2" font-family="Arial" font-size="14.00">acme&#45;flow/acmeflow&#45;sdk</text>
<text xml:space="preserve" text-anchor="middle" x="703.62" y="-6.45" font-family="Arial" font-size="14.00">AssignedTo: not assigned</text>
</g>
<!-- wi__acme_flow_acmeflow_sdk_1&#45;&gt;wi__acme_flow_acmeflow_sdk_5 -->
<g id="edge5" class="edge">
<title>wi__acme_flow_acmeflow_sdk_1&#45;&gt;wi__acme_flow_acmeflow_sdk_5</title>
<path fill="none" stroke="red" stroke-dasharray="5,2" d="M496.81,-134.39C528.16,-120.75 563.03,-105.57 595.07,-91.62"/>
<polygon fill="red" stroke="red" points="596.2,-94.95 603.98,-87.75 593.41,-88.53 596.2,-94.95"/>
<text xml:space="preserve" text-anchor="middle" x="577.15" y="-107.25" font-family="Arial" font-size="10.00">Related</text>
</g>
<!-- wi__acme_flow_acmeflow_sdk_2&#45;&gt;wi__acme_flow_acmeflow_sdk_1 -->
<g id="edge6" class="edge">
<title>wi__acme_flow_acmeflow_sdk_2&#45;&gt;wi__acme_flow_acmeflow_sdk_1</title>
<path fill="none" stroke="red" stroke-dasharray="5,2" d="M336.01,-87.16C340.27,-93.05 344.57,-99.04 348.62,-104.75 353.3,-111.34 358.19,-118.3 362.99,-125.2"/>
<polygon fill="red" stroke="red" points="360.02,-127.06 368.59,-133.28 365.77,-123.07 360.02,-127.06"/>
<text xml:space="preserve" text-anchor="middle" x="373.8" y="-107.25" font-family="Arial" font-size="10.00">Related</text>
</g>
<!-- wi__acme_flow_acmeflow_sdk_4&#45;&gt;wi__acme_flow_acmeflow_sdk_1 -->
<g id="edge7" class="edge">
<title>wi__acme_flow_acmeflow_sdk_4&#45;&gt;wi__acme_flow_acmeflow_sdk_1</title>
<path fill="none" stroke="red" stroke-dasharray="5,2" d="M482.67,-87.1C479.18,-97.32 474.59,-107.84 468.62,-116.75 466.57,-119.82 464.32,-122.82 461.93,-125.75"/>
<polygon fill="red" stroke="red" points="459.38,-123.34 455.37,-133.15 464.62,-127.99 459.38,-123.34"/>
<text xml:space="preserve" text-anchor="middle" x="491.71" y="-107.25" font-family="Arial" font-size="10.00">Related</text>
</g>
<!-- wi__acme_flow_acmeflow_sdk_5&#45;&gt;wi__acme_flow_acmeflow_sdk_1 -->
<g id="edge8" class="edge">
<title>wi__acme_flow_acmeflow_sdk_5&#45;&gt;wi__acme_flow_acmeflow_sdk_1</title>
<path fill="none" stroke="red" stroke-dasharray="5,2" d="M647.79,-87.16C632.13,-97.84 614.71,-108.57 597.62,-116.75 570.15,-129.91 539.16,-140.96 509.97,-149.85"/>
<polygon fill="red" stroke="red" points="509.34,-146.39 500.75,-152.6 511.34,-153.1 509.34,-146.39"/>
<text xml:space="preserve" text-anchor="middle" x="636.13" y="-107.25" font-family="Arial" font-size="10.00">Related</text>
</g>
</g>
</svg>
